<?xml version="1.0" standalone="no"?><!DOCTYPE svg PUBLIC "-//W3C//DTD SVG 1.1//EN" "http://www.w3.org/Graphics/SVG/1.1/DTD/svg11.dtd"><svg t="1699865934558" class="icon" viewBox="0 0 1024 1024" version="1.1" xmlns="http://www.w3.org/2000/svg" p-id="5489" width="32" height="32" xmlns:xlink="http://www.w3.org/1999/xlink"><path d="M718.293333 720.213333a21.333333 21.333333 0 0 0-28.8 31.573334l234.666667 213.333333a21.333333 21.333333 0 1 0 28.8-31.573333zM960 504.106667H704a21.333333 21.333333 0 0 0 0 42.666666h256a21.333333 21.333333 0 0 0 0-42.666666zM704 309.333333a21.333333 21.333333 0 0 0 14.293333-5.546666l234.666667-213.333334a21.333333 21.333333 0 0 0-28.8-31.573333l-234.666667 213.333333A21.333333 21.333333 0 0 0 704 309.333333z" fill="#666666" p-id="5490"></path><path d="M580.906667 55.253333a18.56 18.56 0 0 0-21.333334 4.48l-268.8 231.04H106.666667c-35.2 0-71.893333 26.026667-71.893334 61.44v320A73.6 73.6 0 0 0 106.666667 738.773333h184.746666l271.573334 207.573334a21.333333 21.333333 0 0 0 13.013333 3.84 8.533333 8.533333 0 0 0 5.333333-2.56 18.986667 18.986667 0 0 0 7.893334-19.413334V74.666667a18.346667 18.346667 0 0 0-8.32-19.413334z m-34.133334 829.44l-238.933333-186.88a6.826667 6.826667 0 0 0 0-1.066666 13.013333 13.013333 0 0 0-2.773333-1.92 16 16 0 0 0-3.84 0 18.346667 18.346667 0 0 0-1.92 0H106.666667a32 32 0 0 1-29.226667-22.826667v-320A27.733333 27.733333 0 0 1 106.666667 333.44h192a29.44 29.44 0 0 0 2.773333-1.92 21.333333 21.333333 0 0 0 4.48-1.493333 21.333333 21.333333 0 0 0 3.84-2.56s-2.133333 0-1.493333-1.493334l238.506666-205.226666v763.946666z" fill="#666666" p-id="5491"></path></svg>