<?xml version="1.0" standalone="no"?><!DOCTYPE svg PUBLIC "-//W3C//DTD SVG 1.1//EN" "http://www.w3.org/Graphics/SVG/1.1/DTD/svg11.dtd"><svg t="1701674404766" class="icon" viewBox="0 0 1024 1024" version="1.1" xmlns="http://www.w3.org/2000/svg" p-id="6856" width="48" height="48" xmlns:xlink="http://www.w3.org/1999/xlink"><path d="M549.376 921.6a51.2 51.2 0 0 1-37.376-88.064L847.872 512 512 190.464a51.2 51.2 0 0 1 71.168-73.728l372.224 358.4a51.2 51.2 0 0 1 0 73.728l-372.224 358.4a51.2 51.2 0 0 1-33.792 14.336z" fill="#515151" p-id="6857"></path><path d="M102.4 921.6a51.2 51.2 0 0 1-35.328-88.064L400.896 512 67.072 190.464a51.2 51.2 0 0 1 70.656-73.728l372.224 358.4a51.2 51.2 0 0 1 0 73.728l-372.224 358.4A51.2 51.2 0 0 1 102.4 921.6z" fill="#515151" p-id="6858"></path></svg>